# xmcd
#
# Track frame offsets:
#	150
#	18159
#	39401
#	55055
#	69338
#	71411
#	87075
#	101060
#	114599
#	126090
#	139964
#	155742
#	173877
#	193338
#	206698
#	222378
#
# Disc length: 3159 seconds
#
# Revision: 1
# Processed by: cddbd v1.5.2PL0 Copyright (c) Steve Scherf et al.
# Submitted via: audiograbber 1.83.01
#
DISCID=ea0c5510
DTITLE=Various Artist - Promo Only Country Radio 2005 - 01
DYEAR=2005
DGENRE=Country
TTITLE0=Kenny Chesney - Anything But Mine
TTITLE1=Chely Wright - The Bumper Of My S.U.V.
TTITLE2=Phil Vassar - I'll Take That As A Yes
TTITLE3=Sawyer Brown - Mission Temple Fireworks Stand
TTITLE4=Elbert West - Kimberly Cooper's Eyes
TTITLE5=Zona Jones - Two Hearts
TTITLE6=Katie Kiefer - Rush
TTITLE7=Rebel Hearts - Good To Go
TTITLE8=Narvel Felts - Away
TTITLE9=Clyde Masten - Still We Wonder
TTITLE10=Chace Roberts - Real Good Way
TTITLE11=Johnny Collier - Just When I Needed You Most
TTITLE12=Aaron Russell - For Just Who I Am
TTITLE13=Matt Linsin - He's Just The Man
TTITLE14=Ray Herndon - He Only Talks About Her When He Drinks
TTITLE15=Carly Goodwin - My Dog Thinks I'm Elvis
EXTD=
EXTT0=
EXTT1=
EXTT2=
EXTT3=
EXTT4=
EXTT5=
EXTT6=
EXTT7=
EXTT8=
EXTT9=
EXTT10=
EXTT11=
EXTT12=
EXTT13=
EXTT14=
EXTT15=
PLAYORDER=
